<?xml version="1.0" encoding="UTF-8" standalone="no"?>
<svg
   xmlns:dc="http://purl.org/dc/elements/1.1/"
   xmlns:cc="http://creativecommons.org/ns#"
   xmlns:rdf="http://www.w3.org/1999/02/22-rdf-syntax-ns#"
   xmlns:svg="http://www.w3.org/2000/svg"
   xmlns="http://www.w3.org/2000/svg"
   xmlns:sodipodi="http://sodipodi.sourceforge.net/DTD/sodipodi-0.dtd"
   xmlns:inkscape="http://www.inkscape.org/namespaces/inkscape"
   version="1.1"
   x="0px"
   y="0px"
   width="100px"
   height="100px"
   viewBox="0 0 100 100"
   enable-background="new 0 0 100 100"
   xml:space="preserve"
   id="svg2"
   inkscape:version="0.48.4 r9939"
   sodipodi:docname="noun_project_8428.svg"><metadata
     id="metadata15"><rdf:RDF><cc:Work
         rdf:about=""><dc:format>image/svg+xml</dc:format><dc:type
           rdf:resource="http://purl.org/dc/dcmitype/StillImage" /></cc:Work></rdf:RDF></metadata><defs
     id="defs13" /><sodipodi:namedview
     pagecolor="#ffffff"
     bordercolor="#666666"
     borderopacity="1"
     objecttolerance="10"
     gridtolerance="10"
     guidetolerance="10"
     inkscape:pageopacity="0"
     inkscape:pageshadow="2"
     inkscape:window-width="1366"
     inkscape:window-height="694"
     id="namedview11"
     showgrid="false"
     inkscape:zoom="4.72"
     inkscape:cx="22.502831"
     inkscape:cy="43.527684"
     inkscape:window-x="0"
     inkscape:window-y="25"
     inkscape:window-maximized="1"
     inkscape:current-layer="Page_1_2_" /><g
     id="Captions" /><g
     id="Your_Icon"
     transform="translate(-4.1398202e-6,0)"><g
       id="g6"><g
         id="Page_1_2_"><rect
           style="fill:#202c39;fill-opacity:1;stroke:none"
           id="rect3776"
           width="90"
           height="90"
           x="5.0000043"
           y="4.7003784"
           ry="21.398306" /><path
           id="branch"
           d="m 80.972497,59.343742 -15.181066,1.033345 -15.02402,3.801363 -15.804946,3.998565 c 0,0 -11.255645,6.661168 -13.762636,8.6877 -1.351739,3.901756 2.666188,2.312657 2.666188,2.312657 l 13.082824,-8.180709 c 0,0 21.817852,-5.415561 26.042304,-6.169953 7.382573,-2.594478 16.443167,-2.862674 18.316957,-2.953747 2.401577,-1.891716 -0.335605,-2.529221 -0.335605,-2.529221 z"
           inkscape:connector-curvature="0"
           style="fill:#888a85;fill-opacity:1" /><path
           id="Bird"
           d="m 44.976806,54.199246 1.569101,4.939939 0.890904,1.007568 1.076746,2.603228 c 0.154177,0.367156 0.08318,0.92578 -0.15346,1.234134 0,0 -0.730011,1.000358 -1.66583,1.986374 -0.935819,0.986017 0.391538,1.798494 0.391538,1.798494 0,0 1.157404,1.082825 1.443528,0.671208 0.286124,-0.4109 -0.527071,-1.404087 -0.491215,-2.041592 0.03801,-0.638221 0.755109,-1.196844 0.755109,-1.196844 l 1.344568,-0.712801 c 0,0 1.272857,0.186447 1.969164,-0.547866 -1.463607,-0.433847 -2.46755,-1.691645 -2.46755,-1.691645 0,0 -0.590201,-1.267444 -1.226203,-2.625076 -0.173576,-0.370525 0.02544,-0.801481 -0.143895,-1.161508 -0.857678,-1.82355 -1.933498,-3.257722 -2.017496,-3.995416 4.897811,0.637504 3.462889,0.428827 5.414126,0.509144 1.379706,0.854059 2.061709,2.07863 3.192092,2.868609 0.211164,0.147574 1.008218,-0.0829 1.209205,0.06024 2.928309,2.085481 4.751803,3.663478 4.751803,3.663478 l -0.742202,3.295805 c 0,0 0.06167,1.019003 0.874149,1.115812 0.867694,-0.259592 1.930441,-1.115812 1.930441,-1.115812 0,0 0.46038,-0.09753 -0.841879,0 0,-2.471853 1.074937,-3.511653 1.074937,-3.511653 l 1.221226,-0.315525 c 1.150233,-0.297597 1.120115,-0.538544 -0.06597,-0.538544 l -2.783075,0 -4.55442,-3.029984 -0.331094,-0.792488 -3.414234,-1.699219 c 0,0 17.828901,-3.953036 18.027538,-22.418433 0.386985,-2.861966 -0.282432,-4.026992 0.390752,-5.648596 0.320619,-0.772324 0.321728,-2.827228 0.696599,-3.428826 1.236483,-1.984319 2.641941,-2.911791 4.307741,-4.707797 -1.538902,0.408749 -0.669676,0.09681 -5.611231,1.476515 0.88849,-1.287917 4.044241,-5.269394 4.044241,-5.269394 0,0 -2.960691,-0.01913 -6.182814,1.637695 -4.325391,-0.802407 -10.40696,-1.854857 -14.07898,9.617366 -0.324467,2.264894 -3.023045,6.576775 -4.299551,8.188505 -5.175424,9.310183 -29.38818,26.523273 -26.875511,27.844781 1.205125,0.456781 3.302833,-1.815356 5.859655,-2.825636 3.51453,-1.3887 7.935157,-1.673846 15.511451,-5.244235 z"
           inkscape:connector-curvature="0"
           style="fill:#ffffff;fill-opacity:1"
           sodipodi:nodetypes="cccccscccccccssccsscccccccscccccsscccccccsc" /><flowRoot
           xml:space="preserve"
           id="flowRoot3778"
           style="font-size:14px;font-style:normal;font-weight:normal;line-height:125%;letter-spacing:0px;word-spacing:0px;fill:#eeeeec;fill-opacity:1;stroke:#ffffff;stroke-width:0.40000001;stroke-linecap:round;stroke-linejoin:round;stroke-miterlimit:4;stroke-opacity:1;stroke-dasharray:none;font-family:Sans"
           transform="translate(28.76367,5.9924303)"><flowRegion
             id="flowRegion3780"><rect
               id="rect3782"
               width="76.403488"
               height="43.744743"
               x="31.160639"
               y="70.637093"
               style="font-size:14px;fill:#eeeeec;fill-opacity:1;stroke:#ffffff;stroke-width:0.40000001;stroke-linecap:round;stroke-linejoin:round;stroke-miterlimit:4;stroke-opacity:1;stroke-dasharray:none" /></flowRegion><flowPara
             id="flowPara3784"
             style="font-size:6px;stroke:#ffffff;stroke-width:0.40000001;stroke-linecap:round;stroke-linejoin:round;stroke-miterlimit:4;stroke-opacity:1;stroke-dasharray:none">V 0.5.17</flowPara></flowRoot></g></g></g></svg>